<?xml version="1.0" standalone="no"?>
<!DOCTYPE svg PUBLIC "-//W3C//DTD SVG 20010904//EN"
 "http://www.w3.org/TR/2001/REC-SVG-20010904/DTD/svg10.dtd">
<svg version="1.0" xmlns="http://www.w3.org/2000/svg"
 width="700.000000pt" height="700.000000pt" viewBox="0 0 700.000000 700.000000"
 preserveAspectRatio="xMidYMid meet">
<metadata>
Created by potrace 1.14, written by Peter Selinger 2001-2017
</metadata>
<g transform="translate(0.000000,700.000000) scale(0.100000,-0.100000)"
fill="#000000" stroke="none">
<path d="M3445 6368 c-65 -54 -78 -66 -205 -178 -46 -41 -90 -79 -96 -85 -221
-192 -721 -696 -895 -900 -19 -22 -36 -42 -40 -45 -3 -3 -29 -34 -58 -70 -30
-36 -57 -67 -60 -70 -4 -3 -38 -45 -77 -95 -307 -391 -517 -736 -662 -1085
-56 -136 -123 -348 -138 -440 -3 -14 -9 -47 -14 -75 -5 -27 -12 -72 -16 -100
-3 -27 -8 -61 -10 -75 -2 -14 -4 -95 -4 -180 -1 -143 2 -210 15 -315 3 -22 7
-59 10 -82 17 -140 74 -366 131 -517 34 -88 112 -254 125 -261 5 -4 9 -13 9
-21 0 -8 33 -65 74 -127 354 -539 867 -896 1451 -1013 179 -36 314 -48 525
-48 131 0 291 10 344 20 11 2 37 6 58 9 188 28 390 88 568 169 247 112 443
249 651 456 135 135 158 161 213 235 17 22 33 42 36 45 7 6 108 160 137 210
28 47 108 205 128 255 47 113 117 338 131 425 2 14 9 45 14 70 10 49 26 170
35 265 6 70 7 381 1 410 -2 11 -7 45 -11 75 -7 55 -10 74 -20 120 -2 14 -7 39
-10 55 -11 67 -79 287 -122 395 -58 147 -150 335 -231 475 -60 103 -219 354
-232 365 -3 3 -35 45 -70 95 -267 372 -731 874 -1225 1325 -136 124 -165 149
-275 245 -63 55 -117 103 -120 107 -3 4 -32 -16 -65 -44z m170 -830 c933 -877
1473 -1642 1604 -2276 33 -161 36 -446 6 -627 -73 -437 -277 -799 -614 -1089
-57 -49 -217 -154 -292 -192 -168 -84 -395 -154 -549 -169 -36 -4 -78 -9 -95
-11 -40 -5 -312 -6 -350 0 -16 2 -59 8 -95 12 -36 4 -67 8 -70 9 -3 1 -25 5
-50 10 -25 5 -47 9 -50 10 -3 1 -18 5 -35 9 -363 92 -687 313 -924 630 -138
186 -228 374 -286 601 -32 127 -36 149 -52 278 -10 82 -10 369 0 432 56 350
203 684 485 1094 101 149 279 381 357 467 9 10 75 86 128 148 149 173 743 766
767 766 3 0 55 -46 115 -102z"/>
<path d="M2217 2906 c-85 -25 -149 -110 -149 -195 0 -62 43 -238 88 -358 115
-307 276 -505 535 -660 87 -51 266 -139 304 -148 6 -1 17 -5 25 -8 22 -9 150
-44 185 -51 65 -13 80 -16 149 -23 39 -4 113 -6 165 -6 82 1 100 4 149 30 76
38 112 90 119 171 7 78 -14 139 -64 182 -52 46 -75 52 -220 55 -73 2 -140 6
-150 9 -10 3 -34 8 -53 11 -116 19 -354 123 -461 201 -103 75 -208 215 -260
345 -27 67 -66 201 -73 253 -22 142 -157 232 -289 192z"/>
</g>
</svg>
